<svg xmlns="http://www.w3.org/2000/svg" xmlns:xlink="http://www.w3.org/1999/xlink" width="240" zoomAndPan="magnify" viewBox="0 0 180 97.5" height="130" preserveAspectRatio="xMidYMid meet" version="1.0"><defs><clipPath id="6bd805baf0"><path d="M 0.460938 3 L 179.539062 3 L 179.539062 96.742188 L 0.460938 96.742188 Z M 0.460938 3 " clip-rule="nonzero"/></clipPath></defs><g clip-path="url(#6bd805baf0)"><path fill="#ffffff" d="M 81.980469 34.40625 C 80.039062 34.851562 78.011719 35.011719 75.988281 35.296875 C 74.933594 35.460938 74.207031 35.011719 73.558594 34.121094 C 70.035156 29.085938 68.859375 23.648438 70.601562 17.921875 C 69.871094 18.449219 69.425781 18.855469 69.386719 18.898438 C 66.550781 18.773438 66.429688 20.683594 66.308594 22.835938 C 65.742188 21.902344 65.417969 21.375 65.054688 20.886719 C 64.933594 20.925781 64.808594 20.96875 64.6875 21.007812 C 64.609375 22.183594 64.527344 23.363281 64.445312 24.539062 C 64.324219 24.539062 64.203125 24.539062 64.121094 24.5 C 63.71875 23.648438 63.269531 22.792969 62.785156 21.699219 C 61.652344 23.402344 63.839844 25.109375 62.257812 26.652344 C 61.894531 25.636719 61.609375 24.742188 61.246094 23.929688 C 61.003906 23.484375 60.558594 23.117188 60.195312 22.710938 C 60.195312 23.199219 60.070312 23.726562 60.195312 24.214844 C 60.476562 25.230469 60.882812 26.203125 61.125 27.21875 C 61.246094 27.707031 61.085938 28.273438 61.085938 28.84375 C 60.921875 28.84375 60.71875 28.882812 60.558594 28.882812 C 60.070312 27.503906 59.585938 26.164062 59.019531 24.824219 C 58.855469 24.417969 58.410156 24.175781 58.085938 23.847656 C 57.964844 24.335938 57.683594 24.824219 57.722656 25.269531 C 57.761719 25.796875 58.085938 26.285156 58.332031 26.773438 C 58.777344 27.707031 59.300781 28.558594 59.625 29.492188 C 59.828125 30.101562 59.707031 30.792969 59.75 31.441406 C 59.585938 31.480469 59.425781 31.480469 59.300781 31.523438 C 58.210938 29.410156 57.117188 27.339844 56.0625 25.230469 C 55.902344 25.3125 55.738281 25.351562 55.578125 25.433594 C 55.699219 26.121094 55.738281 26.894531 56.023438 27.542969 C 56.546875 28.761719 57.316406 29.898438 57.804688 31.117188 C 58.128906 31.96875 58.128906 32.941406 58.289062 33.875 C 58.128906 33.917969 57.964844 33.957031 57.804688 34 C 57.601562 33.714844 57.398438 33.429688 57.238281 33.105469 C 56.347656 31.238281 55.457031 29.371094 54.484375 27.542969 C 54.242188 27.136719 53.511719 26.527344 53.308594 26.609375 C 52.417969 27.015625 52.863281 27.707031 53.226562 28.355469 C 54.363281 30.464844 55.457031 32.578125 56.589844 34.6875 C 57.035156 35.5 57.15625 36.191406 56.226562 37.003906 C 54.96875 34.527344 53.753906 32.089844 52.5 29.734375 C 52.175781 29.085938 52.09375 27.746094 51 28.316406 C 49.90625 28.882812 50.960938 29.777344 51.285156 30.425781 C 52.457031 32.738281 53.792969 35.011719 55.050781 37.328125 C 55.457031 38.058594 55.980469 38.871094 54.847656 39.683594 C 54.5625 39.316406 54.320312 38.992188 54.160156 38.667969 C 53.59375 37.613281 53.027344 36.554688 52.5 35.5 C 51.609375 33.835938 50.757812 32.171875 49.785156 30.546875 C 49.625 30.265625 49.097656 30.183594 48.734375 30.019531 C 48.691406 30.425781 48.53125 30.914062 48.652344 31.238281 C 49.054688 32.132812 49.582031 32.941406 50.070312 33.753906 C 51.363281 36.027344 52.703125 38.300781 53.996094 40.535156 C 54.441406 41.347656 54.644531 42.117188 53.511719 43.09375 C 51.6875 39.355469 49.867188 35.824219 48.164062 32.210938 C 47.597656 31.035156 47.195312 30.792969 46.34375 31.765625 C 46.058594 32.089844 46.019531 32.984375 46.261719 33.429688 C 47.234375 35.214844 48.367188 36.882812 49.378906 38.625 C 50.515625 40.492188 51.6875 42.402344 52.78125 44.308594 C 53.226562 45.082031 53.429688 45.894531 52.5 46.707031 C 50.878906 44.148438 49.300781 41.753906 47.800781 39.277344 C 46.789062 37.613281 45.128906 36.148438 45.492188 33.835938 C 45.535156 33.714844 45.128906 33.390625 44.925781 33.390625 C 44.035156 33.308594 42.902344 35.136719 43.386719 35.90625 C 44.035156 36.960938 44.804688 37.9375 45.492188 38.953125 C 47.4375 41.710938 49.421875 44.511719 51.363281 47.3125 C 51.933594 48.167969 52.539062 49.058594 51.769531 50.398438 C 51.363281 49.871094 51 49.464844 50.71875 49.058594 C 48.085938 45.164062 45.492188 41.304688 42.820312 37.449219 C 42.578125 37.082031 42.011719 36.960938 41.566406 36.71875 C 41.484375 37.246094 41.28125 37.816406 41.28125 38.34375 C 41.28125 38.625 41.566406 38.910156 41.765625 39.152344 C 43.671875 41.914062 45.574219 44.675781 47.4375 47.4375 C 48.449219 48.9375 49.542969 50.441406 50.472656 52.023438 C 51.082031 53.039062 51.40625 54.214844 50.839844 55.675781 C 50.433594 55.191406 50.148438 54.945312 49.949219 54.621094 C 47.234375 50.601562 44.441406 46.582031 41.808594 42.484375 C 41.242188 41.628906 41.117188 40.453125 40.714844 39.480469 C 40.59375 39.152344 40.1875 38.625 39.984375 38.625 C 38.730469 38.75 37.960938 40.695312 38.6875 41.753906 C 42.457031 47.03125 46.222656 52.265625 49.949219 57.585938 C 50.230469 57.992188 50.230469 58.558594 50.394531 59.046875 C 50.273438 59.085938 50.148438 59.128906 50.027344 59.207031 C 49.785156 58.964844 49.503906 58.761719 49.257812 58.476562 C 46.058594 54.539062 42.859375 50.5625 39.621094 46.625 C 38.609375 45.367188 37.515625 44.1875 37.796875 42.363281 C 37.839844 42.199219 37.636719 41.996094 37.515625 41.792969 C 35.488281 42.6875 35.085938 43.984375 36.378906 45.527344 C 40.027344 49.953125 43.710938 54.378906 47.355469 58.804688 C 48.207031 59.816406 49.015625 60.875 49.824219 61.929688 C 49.703125 62.050781 49.582031 62.132812 49.460938 62.253906 C 49.097656 61.929688 48.734375 61.644531 48.410156 61.277344 C 44.84375 57.464844 41.242188 53.648438 37.71875 49.789062 C 36.828125 48.816406 36.339844 47.476562 35.652344 46.339844 C 35.410156 45.933594 35.125 45.242188 34.84375 45.242188 C 34.394531 45.242188 33.910156 45.648438 33.546875 45.972656 C 32.65625 46.828125 33.179688 47.515625 33.828125 48.167969 C 37.796875 52.265625 41.726562 56.367188 45.65625 60.46875 C 46.304688 61.15625 46.910156 61.847656 47.558594 62.617188 C 46.222656 63.511719 45.371094 63.023438 44.601562 62.214844 C 42.253906 59.777344 39.863281 57.339844 37.554688 54.863281 C 35.894531 53.039062 33.585938 51.65625 33.304688 48.816406 C 33.222656 48.085938 32.613281 48.125 32.089844 48.695312 C 31.035156 49.871094 31.804688 50.683594 32.574219 51.535156 C 35.976562 55.3125 39.417969 59.085938 42.820312 62.902344 C 43.144531 63.269531 43.347656 63.714844 43.628906 64.082031 C 42.699219 64.933594 42.132812 64.6875 41.441406 63.917969 C 38.164062 60.140625 34.84375 56.40625 31.519531 52.671875 C 31.117188 52.226562 30.144531 51.699219 29.980469 51.859375 C 29.132812 52.550781 29.941406 53.121094 30.386719 53.648438 C 32.167969 55.636719 33.949219 57.585938 35.734375 59.574219 C 37.472656 61.523438 39.175781 63.472656 40.917969 65.421875 C 39.902344 66.191406 39.214844 66.152344 38.566406 65.257812 C 37.554688 63.957031 36.460938 62.699219 35.367188 61.441406 C 33.503906 59.25 31.640625 57.015625 29.738281 54.863281 C 29.496094 54.621094 29.011719 54.621094 28.605469 54.5 C 28.523438 54.945312 28.441406 55.433594 28.441406 55.878906 C 28.441406 56 28.644531 56.164062 28.765625 56.285156 C 30.832031 58.601562 32.9375 60.953125 35.003906 63.269531 C 36.015625 64.40625 37.027344 65.582031 38.042969 66.71875 C 37.273438 67.734375 36.703125 67.410156 36.136719 66.800781 C 34.234375 64.8125 32.289062 62.863281 30.46875 60.792969 C 29.699219 59.941406 29.210938 58.804688 28.523438 57.867188 C 28.242188 57.464844 27.835938 57.21875 27.472656 56.894531 C 27.226562 57.503906 26.902344 58.070312 26.824219 58.722656 C 26.78125 59.003906 27.226562 59.410156 27.472656 59.738281 C 29.171875 61.726562 30.875 63.714844 32.574219 65.703125 C 33.382812 66.636719 34.152344 67.570312 34.921875 68.546875 C 34.800781 68.667969 34.679688 68.789062 34.558594 68.910156 C 33.910156 68.503906 33.140625 68.261719 32.65625 67.695312 C 30.671875 65.542969 28.808594 63.269531 26.902344 61.078125 C 26.621094 60.75 26.175781 60.589844 25.8125 60.34375 C 25.851562 60.792969 25.851562 61.277344 25.972656 61.683594 C 26.09375 62.011719 26.378906 62.292969 26.621094 62.578125 C 28.441406 65.015625 30.265625 67.410156 32.128906 69.804688 C 32.695312 70.535156 32.859375 71.0625 31.683594 71.46875 C 29.414062 68.789062 27.148438 66.070312 24.839844 63.351562 C 23.746094 64.40625 24.109375 65.136719 24.796875 65.824219 C 26.335938 67.53125 27.917969 69.195312 29.414062 70.902344 C 29.859375 71.386719 31.035156 71.957031 30.144531 72.769531 C 29.335938 73.5 28.847656 72.363281 28.363281 71.875 C 26.902344 70.371094 25.527344 68.75 24.070312 67.207031 C 23.867188 67.003906 23.460938 67.003906 23.136719 66.921875 C 23.136719 67.246094 23.058594 67.613281 23.179688 67.894531 C 23.300781 68.179688 23.542969 68.425781 23.785156 68.628906 C 25.203125 70.25 26.621094 71.875 28.078125 73.5 C 28.523438 73.984375 28.890625 74.554688 28.121094 74.960938 C 27.796875 75.121094 27.027344 75.042969 26.78125 74.796875 C 25.367188 73.214844 23.382812 72.078125 22.933594 69.722656 C 22.894531 69.519531 22.613281 69.359375 22.410156 69.195312 C 21.03125 70.65625 21.03125 71.105469 22.328125 72.441406 C 23.664062 73.824219 25 75.164062 26.296875 76.503906 C 25.6875 77.597656 25.121094 77.519531 24.515625 76.746094 C 23.582031 75.648438 22.691406 74.554688 21.71875 73.5 C 21.476562 73.214844 20.992188 73.175781 20.585938 73.011719 C 20.503906 73.5 20.261719 74.109375 20.464844 74.472656 C 20.75 75.121094 21.355469 75.648438 21.761719 76.21875 C 22.410156 77.113281 23.015625 78.003906 23.625 78.9375 C 23.460938 79.140625 23.257812 79.34375 23.097656 79.507812 C 22.449219 78.855469 20.058594 76.585938 19.414062 75.933594 C 19.289062 76.054688 19.210938 76.382812 19.089844 76.503906 C 19.535156 77.234375 21.761719 79.304688 22.167969 80.035156 C 22.367188 80.398438 22.53125 81.050781 22.367188 81.253906 C 22.167969 81.457031 22.003906 81.660156 21.800781 81.863281 L 18.359375 78.003906 L 17.953125 78.734375 L 21.03125 82.671875 C 20.628906 83.078125 20.261719 83.445312 19.859375 83.851562 L 19.167969 83.160156 L 17.386719 80.765625 C 17.144531 81.210938 16.859375 81.253906 17.023438 81.535156 C 17.429688 82.265625 18.074219 82.835938 18.644531 83.484375 L 19.414062 84.335938 C 19.046875 84.703125 18.683594 85.027344 18.320312 85.394531 C 17.914062 84.867188 17.710938 84.539062 17.429688 84.335938 C 17.105469 84.09375 16.699219 83.933594 16.335938 83.730469 C 16.335938 84.214844 16.171875 84.90625 16.414062 85.191406 C 17.46875 86.246094 17.183594 86.976562 16.089844 87.667969 C 15.644531 87.949219 15.242188 88.355469 14.835938 88.722656 C 13.742188 89.738281 12.367188 90.628906 11.597656 91.847656 C 9.652344 94.851562 6.167969 96.71875 2.605469 96.273438 C 0.824219 96.03125 0.460938 95.460938 0.824219 93.554688 C 1.632812 95.785156 2.445312 96.355469 4.429688 95.867188 C 4.996094 95.746094 5.5625 95.460938 6.046875 95.136719 C 8.519531 93.390625 9.9375 91.808594 11.070312 89.738281 C 13.742188 84.742188 16.253906 79.589844 18.277344 74.269531 C 22.8125 62.457031 28.078125 51.128906 35.734375 40.941406 C 43.871094 30.101562 54.078125 22.308594 67.117188 18.410156 C 68.375 18.042969 69.628906 17.636719 70.886719 17.152344 C 70.925781 16.988281 70.964844 16.867188 71.046875 16.703125 C 71.289062 16.015625 71.53125 15.363281 71.695312 14.675781 C 72.585938 11.914062 73.882812 9.761719 73.960938 9.640625 C 77.039062 7.449219 79.792969 5.011719 83.238281 4.160156 C 81.578125 6.921875 79.753906 9.640625 78.214844 12.523438 C 76.636719 15.527344 76.070312 18.734375 77.082031 22.0625 C 78.175781 25.675781 80.644531 27.257812 84.371094 27.054688 C 87.449219 26.894531 90.082031 25.433594 92.714844 24.050781 C 93.523438 23.648438 94.332031 23.28125 95.101562 22.875 C 95.265625 22.996094 95.425781 23.117188 95.589844 23.199219 C 95.101562 24.335938 94.777344 25.59375 94.050781 26.570312 C 91.011719 30.667969 86.921875 33.226562 81.980469 34.40625 Z M 179.136719 92.050781 C 178.367188 94.285156 177.554688 94.894531 175.570312 94.488281 C 175.003906 94.363281 174.398438 94.082031 173.953125 93.796875 C 171.441406 92.132812 169.984375 90.589844 168.808594 88.519531 C 166.015625 83.566406 163.382812 78.492188 161.195312 73.253906 C 156.335938 61.5625 150.789062 50.359375 142.890625 40.414062 C 134.464844 29.777344 124.058594 22.265625 110.9375 18.695312 C 109.480469 18.289062 109.640625 18.328125 109.277344 18.085938 C 108.710938 15.488281 107.65625 13.050781 105.792969 10.898438 C 104.175781 9.03125 102.390625 8.949219 99.800781 10.128906 C 100.042969 10.613281 101.5 11.0625 101.785156 11.386719 C 105.671875 16.054688 103.929688 26.324219 100.003906 30.304688 C 95.792969 34.566406 90.648438 37.285156 85.34375 39.761719 C 84.492188 40.167969 83.640625 40.617188 82.589844 41.101562 C 87.652344 44.230469 95.667969 42.847656 99.394531 40.332031 C 99.679688 40.128906 99.839844 39.519531 99.761719 39.152344 C 98.421875 33.796875 103 26.976562 108.144531 24.457031 C 109.359375 23.847656 109.84375 23.117188 109.761719 21.902344 C 109.722656 21.007812 109.640625 20.113281 109.480469 19.222656 C 111.503906 19.425781 111.667969 21.171875 111.789062 23.078125 C 112.355469 22.144531 112.679688 21.617188 112.960938 21.089844 C 113.082031 21.128906 113.207031 21.171875 113.328125 21.210938 C 113.449219 22.386719 113.570312 23.566406 113.652344 24.742188 C 113.773438 24.742188 113.894531 24.703125 113.976562 24.703125 C 114.378906 23.847656 114.746094 22.957031 115.269531 21.902344 C 116.445312 23.605469 114.296875 25.351562 115.960938 26.8125 C 116.324219 25.796875 116.527344 24.90625 116.929688 24.050781 C 117.132812 23.566406 117.578125 23.242188 117.945312 22.835938 C 117.984375 23.320312 118.105469 23.847656 117.984375 24.335938 C 117.742188 25.351562 117.335938 26.367188 117.09375 27.382812 C 116.972656 27.910156 117.132812 28.4375 117.175781 29.003906 C 117.335938 29.003906 117.539062 29.003906 117.699219 29.003906 C 118.1875 27.625 118.589844 26.246094 119.117188 24.90625 C 119.28125 24.5 119.726562 24.214844 120.007812 23.890625 C 120.171875 24.378906 120.453125 24.863281 120.414062 25.3125 C 120.375 25.839844 120.050781 26.324219 119.847656 26.855469 C 119.441406 27.789062 118.914062 28.640625 118.589844 29.613281 C 118.390625 30.222656 118.550781 30.914062 118.511719 31.5625 C 118.671875 31.601562 118.835938 31.601562 118.957031 31.644531 C 120.007812 29.53125 121.019531 27.382812 122.035156 25.269531 C 122.195312 25.3125 122.359375 25.390625 122.519531 25.433594 C 122.398438 26.164062 122.398438 26.894531 122.15625 27.542969 C 121.667969 28.761719 120.941406 29.9375 120.496094 31.15625 C 120.210938 32.007812 120.210938 32.984375 120.089844 33.917969 C 120.25 33.957031 120.414062 34 120.574219 34 C 120.738281 33.714844 120.941406 33.390625 121.101562 33.066406 C 121.953125 31.199219 122.761719 29.289062 123.695312 27.421875 C 123.898438 26.976562 124.625 26.367188 124.828125 26.449219 C 125.71875 26.855469 125.273438 27.542969 124.949219 28.152344 C 123.898438 30.304688 122.84375 32.457031 121.75 34.566406 C 121.34375 35.378906 121.222656 36.109375 122.15625 36.882812 C 123.371094 34.363281 124.503906 31.929688 125.71875 29.492188 C 126.042969 28.84375 126.082031 27.460938 127.21875 28.03125 C 128.351562 28.558594 127.296875 29.492188 126.972656 30.140625 C 125.839844 32.496094 124.585938 34.808594 123.410156 37.125 C 123.046875 37.855469 122.519531 38.667969 123.652344 39.480469 C 123.898438 39.074219 124.140625 38.789062 124.34375 38.421875 C 124.867188 37.367188 125.394531 36.273438 125.921875 35.214844 C 126.773438 33.550781 127.582031 31.847656 128.511719 30.183594 C 128.675781 29.898438 129.203125 29.816406 129.566406 29.613281 C 129.605469 30.019531 129.808594 30.507812 129.648438 30.832031 C 129.28125 31.726562 128.757812 32.535156 128.3125 33.390625 C 127.054688 35.703125 125.800781 37.976562 124.542969 40.289062 C 124.097656 41.101562 123.9375 41.875 125.113281 42.847656 C 126.851562 39.074219 128.554688 35.5 130.175781 31.847656 C 130.699219 30.667969 131.105469 30.425781 131.957031 31.359375 C 132.238281 31.683594 132.320312 32.578125 132.078125 33.023438 C 131.144531 34.808594 130.09375 36.554688 129.082031 38.300781 C 127.988281 40.210938 126.894531 42.117188 125.839844 44.066406 C 125.4375 44.835938 125.234375 45.648438 126.164062 46.460938 C 127.703125 43.902344 129.242188 41.425781 130.699219 38.910156 C 131.671875 37.207031 133.292969 35.703125 132.886719 33.429688 C 132.847656 33.308594 133.210938 32.984375 133.453125 32.984375 C 134.34375 32.902344 135.519531 34.648438 135.074219 35.460938 C 134.425781 36.515625 133.738281 37.53125 133.050781 38.585938 C 131.1875 41.425781 129.28125 44.230469 127.421875 47.070312 C 126.851562 47.921875 126.285156 48.855469 127.097656 50.15625 C 127.5 49.628906 127.867188 49.222656 128.148438 48.777344 C 130.660156 44.835938 133.171875 40.859375 135.722656 36.960938 C 135.964844 36.597656 136.53125 36.476562 136.9375 36.230469 C 137.058594 36.757812 137.21875 37.285156 137.261719 37.855469 C 137.261719 38.140625 136.976562 38.421875 136.816406 38.667969 C 134.992188 41.46875 133.171875 44.269531 131.347656 47.109375 C 130.335938 48.652344 129.324219 50.195312 128.433594 51.78125 C 127.867188 52.835938 127.542969 54.011719 128.148438 55.433594 C 128.554688 54.945312 128.796875 54.660156 129 54.378906 C 131.632812 50.277344 134.265625 46.21875 136.816406 42.035156 C 137.34375 41.144531 137.464844 40.007812 137.828125 38.992188 C 137.949219 38.667969 138.3125 38.097656 138.558594 38.140625 C 139.8125 38.21875 140.621094 40.167969 139.933594 41.226562 C 136.289062 46.582031 132.683594 51.941406 129.082031 57.339844 C 128.796875 57.746094 128.796875 58.316406 128.675781 58.84375 C 128.796875 58.882812 128.917969 58.925781 129.039062 58.964844 C 129.28125 58.722656 129.566406 58.519531 129.769531 58.234375 C 132.886719 54.214844 135.964844 50.15625 139.082031 46.136719 C 140.054688 44.835938 141.148438 43.660156 140.785156 41.832031 C 140.742188 41.671875 140.945312 41.46875 141.027344 41.265625 C 143.09375 42.078125 143.496094 43.375 142.242188 45 C 138.71875 49.507812 135.15625 54.011719 131.632812 58.519531 C 130.820312 59.574219 130.050781 60.628906 129.242188 61.726562 C 129.363281 61.847656 129.484375 61.929688 129.605469 62.050781 C 129.929688 61.726562 130.296875 61.402344 130.621094 61.078125 C 134.101562 57.179688 137.585938 53.28125 140.988281 49.304688 C 141.835938 48.289062 142.324219 46.949219 142.972656 45.769531 C 143.214844 45.367188 143.496094 44.636719 143.742188 44.675781 C 144.1875 44.675781 144.671875 45.039062 145.078125 45.40625 C 146.007812 46.21875 145.480469 46.90625 144.835938 47.640625 C 140.988281 51.820312 137.140625 56.042969 133.332031 60.265625 C 132.726562 60.953125 132.117188 61.683594 131.46875 62.457031 C 132.804688 63.351562 133.65625 62.78125 134.425781 61.96875 C 136.734375 59.453125 139.042969 56.976562 141.269531 54.417969 C 142.890625 52.550781 145.15625 51.128906 145.402344 48.289062 C 145.441406 47.558594 146.089844 47.558594 146.617188 48.125 C 147.667969 49.261719 146.941406 50.117188 146.171875 50.96875 C 142.851562 54.824219 139.527344 58.679688 136.207031 62.578125 C 135.882812 62.945312 135.679688 63.390625 135.4375 63.796875 C 136.371094 64.609375 136.976562 64.363281 137.625 63.59375 C 140.824219 59.738281 144.023438 55.921875 147.265625 52.105469 C 147.628906 51.65625 148.601562 51.089844 148.804688 51.253906 C 149.652344 51.941406 148.882812 52.511719 148.4375 53.039062 C 146.695312 55.066406 144.996094 57.097656 143.253906 59.128906 C 141.59375 61.117188 139.933594 63.105469 138.234375 65.136719 C 139.246094 65.90625 139.933594 65.824219 140.582031 64.933594 C 141.554688 63.59375 142.648438 62.335938 143.660156 61.078125 C 145.480469 58.84375 147.265625 56.570312 149.125 54.335938 C 149.328125 54.09375 149.855469 54.09375 150.21875 53.972656 C 150.300781 54.417969 150.382812 54.90625 150.421875 55.351562 C 150.421875 55.472656 150.21875 55.636719 150.097656 55.757812 C 148.074219 58.152344 146.050781 60.507812 144.023438 62.902344 C 143.011719 64.082031 142.039062 65.296875 141.066406 66.433594 C 141.878906 67.449219 142.402344 67.085938 142.972656 66.433594 C 144.792969 64.363281 146.738281 62.375 148.480469 60.304688 C 149.25 59.410156 149.695312 58.273438 150.34375 57.300781 C 150.585938 56.894531 151.03125 56.609375 151.394531 56.285156 C 151.636719 56.894531 152.003906 57.464844 152.082031 58.070312 C 152.125 58.355469 151.71875 58.761719 151.433594 59.085938 C 149.773438 61.117188 148.113281 63.148438 146.496094 65.175781 C 145.726562 66.109375 144.957031 67.085938 144.1875 68.058594 C 144.308594 68.179688 144.429688 68.300781 144.550781 68.425781 C 145.199219 68.019531 145.96875 67.734375 146.453125 67.164062 C 148.359375 64.972656 150.179688 62.660156 152.042969 60.425781 C 152.328125 60.101562 152.773438 59.898438 153.136719 59.65625 C 153.09375 60.101562 153.136719 60.589844 153.015625 60.996094 C 152.933594 61.320312 152.609375 61.605469 152.40625 61.886719 C 150.625 64.363281 148.882812 66.839844 147.101562 69.277344 C 146.574219 70.007812 146.414062 70.574219 147.589844 70.941406 C 149.773438 68.179688 152.003906 65.421875 154.230469 62.617188 C 155.324219 63.632812 155 64.363281 154.351562 65.09375 C 152.851562 66.800781 151.3125 68.546875 149.855469 70.292969 C 149.449219 70.820312 148.234375 71.386719 149.167969 72.160156 C 150.019531 72.890625 150.464844 71.710938 150.910156 71.226562 C 152.328125 69.683594 153.664062 68.019531 155.078125 66.476562 C 155.28125 66.273438 155.6875 66.273438 156.011719 66.152344 C 156.011719 66.476562 156.09375 66.839844 156.011719 67.125 C 155.929688 67.410156 155.648438 67.652344 155.445312 67.894531 C 154.066406 69.5625 152.691406 71.226562 151.3125 72.847656 C 150.910156 73.335938 150.503906 73.90625 151.3125 74.3125 C 151.636719 74.472656 152.40625 74.390625 152.648438 74.109375 C 154.027344 72.484375 155.972656 71.265625 156.335938 68.953125 C 156.375 68.75 156.660156 68.585938 156.863281 68.425781 C 158.28125 69.84375 158.28125 70.292969 157.023438 71.671875 C 155.726562 73.050781 154.433594 74.472656 153.136719 75.851562 C 153.785156 76.910156 154.3125 76.828125 154.917969 76.054688 C 155.808594 74.960938 156.660156 73.824219 157.632812 72.726562 C 157.875 72.441406 158.359375 72.363281 158.726562 72.199219 C 158.804688 72.6875 159.050781 73.253906 158.886719 73.660156 C 158.601562 74.3125 158.035156 74.839844 157.632812 75.449219 C 157.023438 76.339844 156.457031 77.273438 155.847656 78.207031 C 156.011719 78.410156 156.214844 78.574219 156.375 78.777344 C 157.023438 78.125 159.332031 75.773438 159.980469 75.121094 C 160.101562 75.246094 160.222656 75.570312 160.304688 75.691406 C 159.859375 76.421875 157.671875 78.574219 157.308594 79.304688 C 157.144531 79.667969 156.984375 80.320312 157.144531 80.523438 C 157.347656 80.726562 157.511719 80.886719 157.710938 81.089844 L 161.035156 77.152344 L 161.480469 77.882812 L 158.523438 81.902344 C 158.925781 82.265625 159.332031 82.671875 159.738281 83.039062 L 160.425781 82.308594 L 162.167969 79.871094 C 162.449219 80.320312 162.695312 80.359375 162.570312 80.644531 C 162.207031 81.375 161.519531 81.984375 160.992188 82.632812 L 160.265625 83.484375 C 160.628906 83.808594 160.992188 84.175781 161.355469 84.539062 C 161.761719 84.011719 161.925781 83.6875 162.207031 83.445312 C 162.53125 83.160156 162.894531 83 163.261719 82.796875 C 163.261719 83.28125 163.464844 83.972656 163.21875 84.257812 C 162.207031 85.3125 162.492188 86.042969 163.585938 86.734375 C 164.03125 87.015625 164.476562 87.382812 164.878906 87.746094 C 166.015625 88.722656 167.390625 89.574219 168.203125 90.792969 C 170.1875 93.757812 173.75 95.542969 177.3125 94.972656 C 179.175781 94.566406 179.539062 93.960938 179.136719 92.050781 Z M 108.144531 26.164062 C 104.578125 28.597656 101.945312 31.765625 100.976562 36.070312 C 100.8125 36.882812 101.097656 37.773438 101.175781 38.828125 C 105.347656 36.960938 109.601562 29.9375 109.238281 25.757812 C 108.832031 25.917969 108.425781 25.960938 108.144531 26.164062 Z M 97.492188 30.34375 C 92.914062 34.363281 87.8125 37.449219 81.980469 39.277344 C 79.347656 40.089844 78.214844 39.640625 76.394531 37.125 C 77.769531 36.839844 79.105469 36.597656 80.402344 36.351562 C 84.492188 35.5 88.378906 34.078125 91.660156 31.441406 C 93.96875 29.574219 95.792969 27.300781 97.007812 24.582031 C 97.492188 23.484375 97.167969 22.632812 96.398438 21.859375 C 95.589844 21.046875 94.859375 21.25 93.96875 21.699219 C 91.863281 22.792969 89.714844 23.808594 87.570312 24.785156 C 86.960938 25.066406 86.355469 25.269531 85.707031 25.433594 C 81.617188 26.324219 78.902344 24.296875 78.378906 20.15625 C 78.09375 17.679688 78.621094 15.285156 79.671875 13.050781 C 81.738281 8.625 84.574219 4.933594 89.515625 3.390625 C 90.527344 3.0625 91.375 2.820312 91.984375 4.160156 C 91.984375 4.160156 92.550781 5.011719 90.851562 8.179688 C 91.539062 8.667969 92.550781 9.355469 93.765625 10.210938 C 93.039062 10.414062 92.511719 10.574219 91.742188 10.816406 C 94.089844 13.292969 93.039062 16.015625 92.59375 18.734375 C 92.753906 18.773438 92.914062 18.816406 93.078125 18.855469 C 93.441406 18.167969 93.929688 17.558594 94.128906 16.828125 C 94.414062 15.8125 94.496094 14.757812 94.535156 13.699219 C 94.65625 11.347656 95.792969 10.453125 98.140625 11.0625 C 100.246094 11.628906 101.460938 13.089844 101.988281 15.160156 C 103.445312 21.007812 102.191406 26.203125 97.492188 30.34375 Z M 87.976562 8.707031 C 88.542969 7.976562 89.027344 7.367188 89.515625 6.71875 C 87.730469 6.921875 87.367188 7.488281 87.976562 8.707031 Z M 91.09375 20.4375 C 88.867188 20.4375 86.191406 22.429688 84.695312 19.222656 C 86.515625 17.515625 86.800781 15.203125 85.421875 13.417969 C 83.359375 14.429688 84.816406 15.894531 85.058594 17.109375 C 83.804688 17.839844 83.316406 17.636719 83.277344 16.378906 C 83.277344 15.648438 83.519531 14.917969 83.804688 14.226562 C 84.167969 13.335938 84.652344 12.484375 85.261719 11.222656 C 83.117188 12.484375 81.699219 15.609375 82.0625 17.558594 C 82.546875 19.992188 84.453125 21.941406 86.597656 22.265625 C 88.582031 22.511719 90.40625 21.820312 91.09375 20.4375 Z M 98.179688 9.84375 L 102.796875 8.949219 C 96.238281 0.507812 92.308594 6.027344 92.308594 6.027344 C 96.398438 6.515625 98.179688 9.84375 98.179688 9.84375 Z M 98.179688 9.84375 " fill-opacity="1" fill-rule="nonzero"/></g></svg>